<svg xmlns="http://www.w3.org/2000/svg" viewBox="0 0 32 32"><title>honorable-mention</title><path d="M25.27864,11.08748a.48884.48884,0,0,0-.2251-.41157L23.39678,9.61623l1.12454-1.61289a.48842.48842,0,0,0-.31476-.76018l-1.93623-.34528.42254-1.921a.48833.48833,0,0,0-.58182-.58182l-1.921.42206L19.8448,2.88092a.48843.48843,0,0,0-.76019-.31476l-1.61384,1.125L16.41109,2.03394a.50692.50692,0,0,0-.82218,0L14.52923,3.69118l-1.61384-1.125a.48843.48843,0,0,0-.76019.31476l-.34528,1.93623L9.889,4.39509a.48833.48833,0,0,0-.58182.58182l.42254,1.921-1.93623.34528a.48842.48842,0,0,0-.31476.76018L8.60322,9.61623,6.94646,10.67591a.4888.4888,0,0,0,0,.82314l1.65676,1.05968L7.47868,14.1721a.48842.48842,0,0,0,.31476.76018l1.93623.34528-.42254,1.921a.48833.48833,0,0,0,.58182.58182l1.921-.42206.34528,1.93623a.48843.48843,0,0,0,.76019.31476l1.61384-1.125L15.58891,20.141a.48793.48793,0,0,0,.82218,0l1.05968-1.65676,1.61384,1.125a.48843.48843,0,0,0,.76019-.31476l.34528-1.93623,1.921.42206a.49087.49087,0,0,0,.45019-.13163.486.486,0,0,0,.13163-.45019l-.42254-1.921,1.93623-.34528a.48842.48842,0,0,0,.31476-.76018l-1.12454-1.61337,1.65676-1.05968A.48946.48946,0,0,0,25.27864,11.08748Z"/><path d="M20.08293,20.93432a1.85759,1.85759,0,0,1-1.798-.19895L17.86,20.4393l-.2846.44579a1.86461,1.86461,0,0,1-1.02031.76833l2.28366,8.523,1.43769-3.12155,2.80575,1.98448-2.3076-8.61215A1.86338,1.86338,0,0,1,20.08293,20.93432Z" style="stroke:#000;stroke-linejoin:round;stroke-width:0.690603911876679px"/><path d="M14.42726,20.88914,14.14,20.4393l-.43568.30281a1.85773,1.85773,0,0,1-1.77776.19626,1.88549,1.88549,0,0,1-.70081-.51239L8.91777,29.03931l2.80575-1.98448,1.43769,3.12155,2.28366-8.52279A1.85809,1.85809,0,0,1,14.42726,20.88914Z" style="stroke:#000;stroke-linejoin:round;stroke-width:0.690603911876679px"/><circle cx="16" cy="11.09487" r="6.36832" style="fill:#fff"/><path d="M16,16.94077a5.8459,5.8459,0,1,0-5.84591-5.84588A5.8459,5.8459,0,0,0,16,16.94077ZM11.41476,9.34494l3.14656-.23026,1.19194-2.92151a.26656.26656,0,0,1,.49387,0l1.19142,2.92151,3.14708.23026a.26672.26672,0,0,1,.15264.4699l-2.41045,2.03641.75329,3.064a.26671.26671,0,0,1-.39957.29043L16.0002,13.54252l-2.68135,1.66315a.26666.26666,0,0,1-.39957-.29017l.75277-3.06425L11.26212,9.81484a.26672.26672,0,0,1,.15264-.4699Z" style="stroke:#000;stroke-linejoin:round;stroke-width:0.03644464017146px"/></svg>