<svg width="116" height="28" viewBox="0 0 116 28" fill="none" xmlns="http://www.w3.org/2000/svg">
<path d="M0 2C0 0.895431 0.895431 0 2 0H114C115.105 0 116 0.895431 116 2V26C116 27.1046 115.105 28 114 28H2C0.895428 28 0 27.1046 0 26V2Z" fill="#EDBD11"/>
<path d="M0 2C0 0.895431 0.895431 0 2 0H114C115.105 0 116 0.895431 116 2V26C116 27.1046 115.105 28 114 28H2C0.895428 28 0 27.1046 0 26V2Z" fill="white" fill-opacity="0.7"/>
<path d="M21 16L21.75 19.75L18 19L16 22L14 19L10.25 19.75L11 16L8 14L11 12L10.25 8.25L14 9L16 6L18 9L21.75 8.25L21 12L23.9922 14L21 16ZM17.5391 17.8906C18.0339 17.9792 18.5234 18.0729 19.0078 18.1719C19.4974 18.2708 19.987 18.3724 20.4766 18.4766C20.3724 17.987 20.2708 17.5 20.1719 17.0156C20.0729 16.526 19.9792 16.0339 19.8906 15.5391C20.2812 15.2839 20.6641 15.0286 21.0391 14.7734C21.4193 14.513 21.8047 14.2552 22.1953 14C21.8099 13.7396 21.4271 13.4818 21.0469 13.2266C20.6667 12.9714 20.2812 12.7161 19.8906 12.4609C19.9844 11.9661 20.0807 11.4766 20.1797 10.9922C20.2786 10.5026 20.3776 10.013 20.4766 9.52344C19.987 9.6276 19.4974 9.72917 19.0078 9.82812C18.5234 9.92708 18.0339 10.0208 17.5391 10.1094C17.2839 9.71875 17.0286 9.33333 16.7734 8.95312C16.5182 8.57292 16.2604 8.1901 16 7.80469C15.7396 8.1901 15.4818 8.57292 15.2266 8.95312C14.9714 9.33333 14.7161 9.71875 14.4609 10.1094C13.9661 10.0208 13.474 9.92708 12.9844 9.82812C12.5 9.72917 12.013 9.6276 11.5234 9.52344C11.6276 10.013 11.7292 10.5026 11.8281 10.9922C11.9271 11.4766 12.0208 11.9661 12.1094 12.4609C11.7188 12.7161 11.3333 12.9714 10.9531 13.2266C10.5729 13.4818 10.1901 13.7396 9.80469 14C10.1901 14.2604 10.5729 14.5182 10.9531 14.7734C11.3333 15.0286 11.7188 15.2839 12.1094 15.5391C12.0156 16.0339 11.9193 16.526 11.8203 17.0156C11.7214 17.5 11.6224 17.987 11.5234 18.4766C12.013 18.3724 12.5 18.2708 12.9844 18.1719C13.474 18.0729 13.9661 17.9792 14.4609 17.8906C14.7161 18.2812 14.9714 18.6667 15.2266 19.0469C15.4818 19.4271 15.7396 19.8099 16 20.1953C16.2604 19.8099 16.5182 19.4271 16.7734 19.0469C17.0286 18.6667 17.2839 18.2812 17.5391 17.8906ZM18.1484 11.6484L18.8516 12.3516L15 16.2031L13.1484 14.3516L13.8516 13.6484L15 14.7969L18.1484 11.6484Z" fill="#A96500"/>
<path d="M34.4336 15.2949V19H33.2852V9.19727H35.9785C37.0267 9.19727 37.8379 9.45247 38.4121 9.96289C38.9909 10.4733 39.2803 11.1934 39.2803 12.123C39.2803 13.0527 38.959 13.8138 38.3164 14.4062C37.6784 14.9987 36.8148 15.2949 35.7256 15.2949H34.4336ZM34.4336 10.2363V14.2559H35.6367C36.4297 14.2559 37.0335 14.0758 37.4482 13.7158C37.8675 13.3512 38.0771 12.8385 38.0771 12.1777C38.0771 10.8835 37.3115 10.2363 35.7803 10.2363H34.4336ZM41.1328 19V9.19727H43.9219C44.7695 9.19727 45.4417 9.40462 45.9385 9.81934C46.4352 10.234 46.6836 10.7741 46.6836 11.4395C46.6836 11.9954 46.5332 12.4785 46.2324 12.8887C45.9316 13.2988 45.5169 13.5905 44.9883 13.7637V13.791C45.6491 13.8685 46.1777 14.1191 46.5742 14.543C46.9707 14.9622 47.1689 15.5091 47.1689 16.1836C47.1689 17.0221 46.8682 17.7012 46.2666 18.2207C45.665 18.7402 44.9062 19 43.9902 19H41.1328ZM42.2812 10.2363V13.4014H43.457C44.0859 13.4014 44.5804 13.251 44.9404 12.9502C45.3005 12.6449 45.4805 12.2165 45.4805 11.665C45.4805 10.7126 44.8538 10.2363 43.6006 10.2363H42.2812ZM42.2812 14.4336V17.9609H43.8398C44.5143 17.9609 45.0361 17.8014 45.4053 17.4824C45.779 17.1634 45.9658 16.7259 45.9658 16.1699C45.9658 15.0124 45.1774 14.4336 43.6006 14.4336H42.2812ZM50.3066 19H49.1582V9.19727H50.3066V19ZM63.4043 18.5898C62.6797 18.9727 61.7773 19.1641 60.6973 19.1641C59.3027 19.1641 58.1862 18.7152 57.3477 17.8174C56.5091 16.9196 56.0898 15.7415 56.0898 14.2832C56.0898 12.7155 56.5615 11.4486 57.5049 10.4824C58.4482 9.51628 59.6445 9.0332 61.0938 9.0332C62.0234 9.0332 62.7936 9.16764 63.4043 9.43652V10.6602C62.7025 10.2682 61.9277 10.0723 61.0801 10.0723C59.9544 10.0723 59.0407 10.4482 58.3389 11.2002C57.6416 11.9521 57.293 12.957 57.293 14.2148C57.293 15.4089 57.6188 16.3613 58.2705 17.0723C58.9268 17.7786 59.7858 18.1318 60.8477 18.1318C61.832 18.1318 62.6842 17.9131 63.4043 17.4756V18.5898ZM70.876 15.7803H65.9336C65.9518 16.5596 66.1615 17.1611 66.5625 17.585C66.9635 18.0088 67.515 18.2207 68.2168 18.2207C69.0052 18.2207 69.7298 17.9609 70.3906 17.4414V18.4941C69.7754 18.9408 68.9619 19.1641 67.9502 19.1641C66.9613 19.1641 66.1842 18.8473 65.6191 18.2139C65.054 17.5758 64.7715 16.6803 64.7715 15.5273C64.7715 14.4382 65.0791 13.5518 65.6943 12.8682C66.3141 12.18 67.082 11.8359 67.998 11.8359C68.9141 11.8359 69.6227 12.1322 70.124 12.7246C70.6253 13.3171 70.876 14.1396 70.876 15.1924V15.7803ZM69.7275 14.8301C69.723 14.1829 69.5658 13.6794 69.2559 13.3193C68.9505 12.9593 68.5244 12.7793 67.9775 12.7793C67.4489 12.7793 67 12.9684 66.6309 13.3467C66.2617 13.7249 66.0339 14.2194 65.9473 14.8301H69.7275ZM76.2285 13.1348C76.0326 12.9844 75.75 12.9092 75.3809 12.9092C74.9023 12.9092 74.5013 13.1348 74.1777 13.5859C73.8587 14.0371 73.6992 14.6523 73.6992 15.4316V19H72.5781V12H73.6992V13.4424H73.7266C73.8861 12.9502 74.1299 12.5674 74.458 12.2939C74.7861 12.016 75.153 11.877 75.5586 11.877C75.8503 11.877 76.0736 11.9089 76.2285 11.9727V13.1348ZM80.6924 18.9316C80.4281 19.0775 80.0794 19.1504 79.6465 19.1504C78.4206 19.1504 77.8076 18.4668 77.8076 17.0996V12.957H76.6045V12H77.8076V10.291L78.9287 9.92871V12H80.6924V12.957H78.9287V16.9014C78.9287 17.3708 79.0085 17.7057 79.168 17.9062C79.3275 18.1068 79.5918 18.207 79.9609 18.207C80.2435 18.207 80.4873 18.1296 80.6924 17.9746V18.9316ZM82.7637 10.2227C82.5632 10.2227 82.3923 10.1543 82.251 10.0176C82.1097 9.88086 82.0391 9.70768 82.0391 9.49805C82.0391 9.28841 82.1097 9.11523 82.251 8.97852C82.3923 8.83724 82.5632 8.7666 82.7637 8.7666C82.9688 8.7666 83.1419 8.83724 83.2832 8.97852C83.429 9.11523 83.502 9.28841 83.502 9.49805C83.502 9.69857 83.429 9.86947 83.2832 10.0107C83.1419 10.152 82.9688 10.2227 82.7637 10.2227ZM83.3105 19H82.1895V12H83.3105V19ZM89.0391 9.62109C88.8203 9.49805 88.5719 9.43652 88.2939 9.43652C87.5101 9.43652 87.1182 9.93099 87.1182 10.9199V12H88.7588V12.957H87.1182V19H86.0039V12.957H84.8076V12H86.0039V10.8652C86.0039 10.1315 86.2158 9.55273 86.6396 9.12891C87.0635 8.70052 87.5921 8.48633 88.2256 8.48633C88.5674 8.48633 88.8385 8.52734 89.0391 8.60938V9.62109ZM90.543 10.2227C90.3424 10.2227 90.1715 10.1543 90.0303 10.0176C89.889 9.88086 89.8184 9.70768 89.8184 9.49805C89.8184 9.28841 89.889 9.11523 90.0303 8.97852C90.1715 8.83724 90.3424 8.7666 90.543 8.7666C90.748 8.7666 90.9212 8.83724 91.0625 8.97852C91.2083 9.11523 91.2812 9.28841 91.2812 9.49805C91.2812 9.69857 91.2083 9.86947 91.0625 10.0107C90.9212 10.152 90.748 10.2227 90.543 10.2227ZM91.0898 19H89.9688V12H91.0898V19ZM98.9854 15.7803H94.043C94.0612 16.5596 94.2708 17.1611 94.6719 17.585C95.0729 18.0088 95.6243 18.2207 96.3262 18.2207C97.1146 18.2207 97.8392 17.9609 98.5 17.4414V18.4941C97.8848 18.9408 97.0713 19.1641 96.0596 19.1641C95.0706 19.1641 94.2936 18.8473 93.7285 18.2139C93.1634 17.5758 92.8809 16.6803 92.8809 15.5273C92.8809 14.4382 93.1885 13.5518 93.8037 12.8682C94.4235 12.18 95.1914 11.8359 96.1074 11.8359C97.0234 11.8359 97.7321 12.1322 98.2334 12.7246C98.7347 13.3171 98.9854 14.1396 98.9854 15.1924V15.7803ZM97.8369 14.8301C97.8324 14.1829 97.6751 13.6794 97.3652 13.3193C97.0599 12.9593 96.6338 12.7793 96.0869 12.7793C95.5583 12.7793 95.1094 12.9684 94.7402 13.3467C94.3711 13.7249 94.1432 14.2194 94.0566 14.8301H97.8369ZM106.662 19H105.541V17.8105H105.514C104.994 18.7129 104.192 19.1641 103.107 19.1641C102.228 19.1641 101.524 18.8519 100.995 18.2275C100.471 17.5986 100.209 16.7441 100.209 15.6641C100.209 14.5065 100.501 13.5791 101.084 12.8818C101.667 12.1846 102.444 11.8359 103.415 11.8359C104.377 11.8359 105.076 12.2142 105.514 12.9707H105.541V8.63672H106.662V19ZM105.541 15.835V14.8027C105.541 14.2376 105.354 13.7591 104.98 13.3672C104.607 12.9753 104.133 12.7793 103.559 12.7793C102.875 12.7793 102.337 13.0299 101.945 13.5312C101.553 14.0326 101.357 14.7253 101.357 15.6094C101.357 16.416 101.544 17.054 101.918 17.5234C102.296 17.9883 102.802 18.2207 103.436 18.2207C104.06 18.2207 104.566 17.9951 104.953 17.5439C105.345 17.0928 105.541 16.5231 105.541 15.835Z" fill="#A96500"/>
</svg>
